#!OML:ASF F:\VICON\USERDATA\INSTALL\rory3\rory3.ASF
:FULLY-SPECIFIED
:DEGREES
78
root -0.4360972399064465 17.839079252378276 43.18926366112743 -4.046223062279619 -2.5884500237719403 -5.793438879751731
lfemur -21.813791416507904 -4.32098563085362 -8.417072994978952
ltibia 55.56003646006012
lfoot -2.530610681722446 -8.76903400319252
ltoes -9.143158629295371
rfemur -7.159538329464457 7.012966666137835 28.06001025604964
rtibia 11.79546559302251
rfoot -3.919267994410819 -12.92597663583782
rtoes 14.287638346820485
lowerback nan -0.008325891182041856 2.8883544930327365
upperback 1.0365767766394438 2.1745172485541255 2.7788108258149498
thorax -4.457060193570235 0.5980822249923695 0.9203216828972753
lowerneck -15.333800786980314 -2.5298326440426684 -1.861355037753951
upperneck 19.83942273958292 -3.5181536390686365 1.3273869078606677
head 8.738896612113003 -1.7638684152195965 0.30374971044917864
lclavicle 1.5644624245325295e-14 1.6325022901320592e-15
lhumerus -30.880510827302462 0.03081071823475867 84.48475171886903
lradius 31.486251201926436
lwrist 6.576809015080576
lhand -27.316943532062517 24.354956193329535
lfingers nan
lthumb -1.0446733770158008 54.2245118229392
rclavicle 1.7214927664119176e-14 3.825436015205553e-15
rhumerus -27.771659937112556 -14.765408855232653 -80.7551499181105
rradius 27.238217447807912
rwrist 3.5077843644997597
rhand -17.834618488003837 nan
rfingers nan
rthumb 8.620033011683343 -5.0047327309411855
79
root -0.4261663062620456 17.815375092472507 43.328842995907515 -3.9500845635957997 -3.5458357075150397 -6.0894380103244075
lfemur -24.03106047063293 -3.77212298161 -8.226292960062114
ltibia 53.99840416648118
lfoot -7.169971174496993 -5.99040763315064
ltoes -10.386342776585392
rfemur -4.885991691930267 7.2169062607278285 28.45492855370832
rtibia 12.150426539443394
rfoot -5.169424467253023 -12.807747844123229
rtoes 14.075364797899791
lowerback nan 0.5223403568912881 3.3566814901465785
upperback 0.9437869028548291 2.864514205957155 2.4658977134162567
thorax -4.570430265828437 0.9858612101805002 0.29023240361744085
lowerneck -15.46840076055643 -2.5212642826629312 -1.6927950211158338
upperneck 20.074857761108127 -3.5222359167630115 1.246895486262161
head 8.858255499392092 -1.7529716302792377 0.25545730239841186
lclavicle 2.2314666372284487e-14 1.5919484068058023e-14
lhumerus -32.05715220847505 0.7092549756256986 84.22896000899969
lradius 31.726934483454578
lwrist 6.983791403838259
lhand -23.72569214923147 30.28436192012043
lfingers nan
lthumb 2.4240646683898817 60.12689743901935
rclavicle 2.390885852580864e-14 1.839845681820993e-14
rhumerus -27.142828936997006 -12.83612776387622 -81.7445096024129
rradius 28.295321168194572
rwrist 3.550182028763645
rhand -18.796961135488196 nan
rfingers nan
rthumb 7.701794566260315 -7.853758933301583
80
root -0.41931835285742797 17.779957804779027 43.89656394293705 -3.4985849753335923 -4.21816004973431 -6.589586401532223
lfemur -26.4263566511419 -3.567766600947711 -7.3468438860499
ltibia 50.15395599061526
lfoot -9.355154307775019 -3.6898992591580777
ltoes -9.604351121942832
rfemur -3.318209270758647 7.272248204661663 29.363569539648473
rtibia 12.514159212641538
rfoot -6.393833499822443 -12.91612216388075
rtoes 14.147373650731026
lowerback nan 0.8868952705465857 4.355853868603383
upperback 0.9106160751521579 3.502906868037205 2.4749449920599647
thorax -4.5086514445832915 1.31686061613243 -0.45544687229114655
lowerneck -15.442357030196474 -2.5325254271939692 -1.673428544000279
upperneck 19.872788366309173 -3.518544322477183 1.208719567644956
head 8.775573341729707 -1.7513124570126137 0.2490444734981465
lclavicle -9.00444463319918e-15 9.269767870508607e-15
lhumerus -32.9329609340658 1.3113211038756383 84.19891750324072
lradius 31.37605393924253
lwrist 8.638279195616168
lhand -25.903867155850413 24.309881677589843
lfingers nan
lthumb 0.3636143854932339 54.21201658413784
rclavicle -7.711935166980425e-15 1.1807839514451764e-14
rhumerus -26.278607233700843 -10.263974924122639 -82.75055766221213
rradius 29.599638104675886
rwrist 2.0152970529549474
rhand -18.414694801072777 nan
rfingers nan
rthumb 8.107762474282211 -9.780447955156072
81
root -0.4120647673430989 17.733888726972573 44.829124277346196 -3.2282451686390408 -4.9921159277573235 -6.949010810086527
lfemur -27.28102627503047 -3.451477791561927 -6.943647072491299
ltibia 43.852989604060014
lfoot -10.974195262706136 -0.796489424175346
ltoes -10.04479823110375
rfemur -1.248239305852172 7.155158203837356 29.77798753371753
rtibia 12.207476633782726
rfoot -7.823950399209951 -12.76152315667527
rtoes 13.67498644615251
lowerback nan 1.2449479070733518 5.059649816845515
upperback 0.9566995491578367 4.039362438172215 2.4438299752445065
thorax -4.379898851159864 1.6346288451930917 -1.0059365531952453
lowerneck -15.935612549655577 -2.625939795708518 -1.8054166943063654
upperneck 20.10069298478609 -3.6773365650230394 1.3548111740738324
head 8.931147891914657 -1.794989603022346 0.28772395246975846
lclavicle 1.8123167930511272e-14 -4.841390626462829e-15
lhumerus -33.66881294507391 2.087611268407713 84.05868551603257
lradius 30.454508140044155
lwrist 7.856174251241771
lhand -28.282860033512218 21.565171754303453
lfingers nan
lthumb -1.9312242292582664 51.462974673959856
rclavicle 1.9059368766299224e-14 -2.57321421172019e-15
rhumerus -25.475975017659252 -8.2118550750839 -83.42600389779095
rradius 30.371764112791492
rwrist 0.7488313061226037
rhand -17.90515393044691 nan
rfingers nan
rthumb 8.591405372262537 -5.540979107416099
82
root -0.39105309319996334 17.697207910340357 45.18659051926367 -2.7007854796206634 -5.766264178806209 -7.29594131673457
lfemur -27.639159916929298 -3.650401977812181 -6.351840034360134
ltibia 35.17834963162786
lfoot -10.762178946359265 2.2703879703774454
ltoes -6.767139231743032
rfemur 0.7231181134826787 7.489310169367817 30.250995011138013
rtibia 11.08234966747714
rfoot -7.638876977010864 -12.716379371169221
rtoes 15.229983148946573
lowerback nan 1.5979959697408161 5.670746269189584
upperback 0.7479124941265516 4.491470013355778 2.4377609686882735
thorax -4.581699451185825 1.9400982794803545 -1.47522987537568
lowerneck -15.774465080126744 -2.5330481177364517 -1.5786848051182159
upperneck 19.934059793000912 -3.5564574797930835 1.2304492334988433
head 8.850321869774238 -1.7486680516938 0.23716941297889962
lclavicle -2.4332208089607113e-14 -2.1739343247673053e-14
lhumerus -34.70420279510182 2.56395272298852 83.99737922150555
lradius 29.540759536447922
lwrist 7.990136683030638
lhand -28.549020330994384 19.87922996054533
lfingers nan
lthumb -2.2276548453415566 49.73400413228151
rclavicle -2.4034093971827285e-14 -2.0290858317019817e-14
rhumerus -24.856564875936026 -6.989488203067545 -83.70049004908729
rradius 31.066524677032838
rwrist -0.2656705163172459
rhand -18.14665435771294 nan
rfingers nan
rthumb 8.346551700792995 -5.28522834047223
83
root -0.3605372216791998 17.66842823637108 45.659026277987955 -2.133677023321793 -6.463740293630142 -7.396358738323038
lfemur -26.79086423791205 -4.651536190746675 -5.873852511382177
ltibia 24.050288780303646
lfoot -9.836318841596988 5.218384736149241
ltoes -11.19923036175947
rfemur 2.7883839761053757 7.565164926823192 30.146576339809847
rtibia 9.634828483173685
rfoot -7.589198505592614 -12.644568277269064
rtoes 15.221676433416306
lowerback nan 1.9890273282107116 5.81987838905461
upperback 0.594935217479 5.037337167465138 2.414148535063235
thorax -4.579470320735287 2.265505456113102 -1.744078462906408
lowerneck -15.68474749516821 -2.3569784889846814 -1.249410112728699
upperneck 19.94034459623872 -3.311534650093507 1.1622694679449384
head 8.838485837383715 -1.6430153900376947 0.20024142302466225
lclavicle 7.061207213938506e-15 1.2799881508281434e-14
lhumerus -35.47344519454852 3.400897988064358 83.8150254637045
lradius 28.295209610509104
lwrist 7.697458397500036
lhand -28.64027309579547 17.78807108400828
lfingers nan
lthumb -2.3375960411601335 47.573588080373405
rclavicle 6.9578870729867225e-15 1.3861674191429405e-14
rhumerus -24.57451939711163 -6.4952139221505245 -83.6975482553615
rradius 31.939996040451827
rwrist -1.1592592934424673
rhand -18.207626260211757 nan
rfingers nan
rthumb 8.296325023932015 -5.448334957245585
